<?xml version="1.0" encoding="UTF-8"?>
<svg width="1403px" height="272px" viewBox="0 0 1403 272" version="1.1" xmlns="http://www.w3.org/2000/svg" xmlns:xlink="http://www.w3.org/1999/xlink">
    <title>ObservatoriumFinal_Blue_Horizontal</title>
    <g id="ObservatoriumFinal_Blue_Horizontal" stroke="none" stroke-width="1" fill="none" fill-rule="evenodd">
        <path d="M442.007267,152.523537 C442.049755,160.487613 440.485181,168.378509 437.406389,175.723537 C428.244444,197.657382 406.736333,211.880233 382.966389,211.723537 C374.999765,211.770043 367.105633,210.208903 359.756389,207.133537 C345.502258,201.292754 334.187172,189.977668 328.346389,175.723537 C322.231587,160.857784 322.231587,144.17929 328.346389,129.313537 C334.182517,115.063244 345.489816,103.748741 359.736389,97.9035371 C367.085633,94.8281712 374.979765,93.2670308 382.946389,93.3135371 C406.75057,93.0411075 428.317535,107.302877 437.386389,129.313537 C440.472038,136.660645 442.043398,144.554857 442.007267,152.523537 L442.007267,152.523537 Z M429.206389,152.523537 C429.251349,146.087864 428.02806,139.706373 425.606389,133.743537 C423.353945,128.132586 420.040043,123.008941 415.846389,118.653537 C407.136383,109.849016 395.26621,104.894665 382.881389,104.894665 C370.496568,104.894665 358.626395,109.849016 349.916389,118.653537 C345.722735,123.008941 342.408834,128.132586 340.156389,133.743537 C337.731296,139.705681 336.504604,146.087196 336.546389,152.523537 C336.465549,165.08911 341.257805,177.196996 349.916389,186.303537 C354.085168,190.615397 359.07712,194.046514 364.596389,196.393537 C376.289979,201.313389 389.472799,201.313389 401.166389,196.393537 C406.684348,194.044128 411.675852,190.613319 415.846389,186.303537 C424.507603,177.199431 429.297247,165.08909 429.206389,152.523537 L429.206389,152.523537 Z M539.417074,168.753537 C539.448345,174.485286 538.36136,180.168176 536.216389,185.483537 C527.860982,206.032384 504.768038,216.314064 483.906389,208.773537 C479.401677,207.153575 475.210209,204.768599 471.516389,201.723537 L471.516389,209.923537 L459.516389,209.923537 L459.516389,95.1235371 L471.656389,92.3335371 L471.656389,136.443537 C475.063385,133.164105 479.116123,130.630292 483.556389,129.003537 C488.201138,127.291862 493.11639,126.431439 498.066389,126.463537 C503.64869,126.417976 509.179348,127.535006 514.306389,129.743537 C524.296937,133.989063 532.177539,142.049669 536.196389,152.133537 C538.343189,157.40992 539.430519,163.05724 539.396389,168.753537 L539.417074,168.753537 Z M496.916389,137.103537 C491.972313,137.053241 487.076244,138.076809 482.566389,140.103537 C478.306404,142.002683 474.567339,144.901316 471.666389,148.553537 L471.666389,189.223537 C474.626274,192.815008 478.396236,195.652761 482.666389,197.503537 C487.148424,199.51815 492.012545,200.541458 496.926389,200.503537 C505.134481,200.684324 513.034564,197.377481 518.666389,191.403537 C524.506389,185.33687 527.429722,177.820204 527.436429,168.853537 C527.443014,164.57535 526.617699,160.336693 525.006389,156.373537 C523.503654,152.630809 521.304811,149.206994 518.526389,146.283537 C515.775058,143.430921 512.489314,141.14755 508.856389,139.563537 C505.09243,137.916901 501.024697,137.078825 496.916389,137.103537 Z M547.916389,198.603537 L555.296389,190.733537 C558.943832,194.185335 563.19438,196.937683 567.836389,198.853537 C572.32504,200.732694 577.140284,201.707976 582.006389,201.723537 C588.566389,201.723537 593.923056,200.35687 598.076389,197.623537 C602.229722,194.890204 604.316389,191.350204 604.336389,187.003537 C604.475676,183.814216 603.109331,180.744568 600.646389,178.713537 C598.186389,176.713537 594.333056,175.320204 589.086389,174.533537 L574.816389,172.533537 C566.616389,171.333537 560.523056,168.903537 556.536389,165.243537 C552.549722,161.583537 550.549722,156.633537 550.536389,150.393537 C550.536389,143.513537 553.433056,137.803537 559.226389,133.263537 C565.019722,128.723537 572.399722,126.452883 581.366389,126.452883 C587.07355,126.425336 592.748513,127.309834 598.176389,129.073537 C603.746226,130.965254 608.978637,133.733367 613.676389,137.273537 L607.286389,145.473537 C603.129202,142.639795 598.638706,140.329054 593.916389,138.593537 C589.680586,137.076544 585.215641,136.298561 580.716389,136.293537 C575.136389,136.293537 570.569722,137.550204 567.016389,140.063537 C563.666133,142.209031 561.653147,145.925314 561.686389,149.903537 C561.530164,153.026728 562.875333,156.036637 565.306389,158.003537 C567.719722,159.91687 571.603056,161.250204 576.956389,162.003537 L591.216389,164.003537 C599.416389,165.090204 605.566389,167.520204 609.666389,171.293537 C613.766389,175.06687 615.816508,180.06687 615.816508,186.293537 C615.828226,189.762541 614.953935,193.177097 613.276389,196.213537 C611.555855,199.359804 609.166423,202.090583 606.276389,204.213537 C603.073504,206.551747 599.495642,208.327151 595.696389,209.463537 C591.442372,210.745923 587.019346,211.379711 582.576389,211.343537 C576.058717,211.390198 569.586847,210.251691 563.476389,207.983537 C557.728984,205.904984 552.445691,202.718019 547.926389,198.603537 L547.916389,198.603537 Z M699.446389,201.223537 C695.087497,204.495363 690.246323,207.069451 685.096389,208.853537 C679.833032,210.591695 674.319037,211.449878 668.776389,211.393537 C663.06535,211.432855 657.405308,210.317173 652.136389,208.113537 C647.096316,206.043153 642.522763,202.982783 638.686389,199.113537 C626.725459,186.609837 623.203508,168.256561 629.686389,152.213537 C631.709724,147.241396 634.628023,142.682613 638.296389,138.763537 C645.763596,130.889899 656.144991,126.44073 666.996389,126.463537 C672.284729,126.423007 677.517626,127.542635 682.326389,129.743537 C687.00257,131.864239 691.190115,134.928296 694.626389,138.743537 C698.149917,142.694604 700.928152,147.251587 702.826389,152.193537 C704.866587,157.4736 705.884651,163.093318 705.826389,168.753537 L705.826389,172.523537 L638.446389,172.523537 C639.143379,180.262776 642.710519,187.461265 648.446389,192.703537 C654.08143,197.983525 661.555684,200.854098 669.276389,200.703537 C673.509465,200.701375 677.715285,200.026284 681.736389,198.703537 C685.471043,197.560506 688.932116,195.664913 691.906389,193.133537 L699.446389,201.223537 Z M666.646389,137.103537 C659.789201,137.006766 653.166617,139.598368 648.196389,144.323537 C642.968029,149.196243 639.628342,155.758747 638.766389,162.853537 L693.706389,162.853537 C692.745453,155.894903 689.486094,149.457141 684.446389,144.563537 C679.77339,139.767289 673.352663,137.074843 666.656389,137.103537 L666.646389,137.103537 Z M722.736389,209.923537 L722.736389,127.753537 L734.876389,127.753537 L734.876389,139.403537 C737.111734,135.310243 740.393458,131.883585 744.386389,129.473537 C748.469344,127.102948 753.126221,125.902401 757.846389,126.003537 C759.216826,125.994092 760.586414,126.074263 761.946389,126.243537 C763.17512,126.41908 764.381834,126.724111 765.546389,127.153537 L765.546389,138.303537 C764.146288,137.871868 762.724294,137.5147 761.286389,137.233537 C759.88241,136.963431 758.456112,136.826158 757.026389,136.823537 C752.234379,136.745177 747.554647,138.276917 743.736389,141.173537 C739.652801,144.42584 736.582504,148.776295 734.886389,153.713537 L734.886389,209.973537 L722.736389,209.923537 Z M808.836389,209.923537 L773.246389,127.753537 L786.706389,127.753537 L814.706389,194.173537 L842.706389,127.753537 L855.706389,127.753537 L820.286389,209.923537 L808.836389,209.923537 Z M892.836389,211.393537 C883.876389,211.393537 876.579722,209.09687 870.946389,204.503537 C865.526022,200.033916 862.42075,193.350514 862.500403,186.325448 C862.580057,179.300382 865.836071,172.689108 871.356389,168.343537 C877.256389,163.81687 885.236389,161.550204 895.296389,161.543537 C899.575677,161.529617 903.841718,162.019658 908.006389,163.003537 C911.949542,163.933579 915.774121,165.309086 919.406389,167.103537 L919.406389,156.293537 C919.406389,149.733537 917.546389,144.78687 913.826389,141.453537 C910.106389,138.120204 904.696389,136.453537 897.596389,136.453537 C893.462997,136.467121 889.351121,137.049245 885.376389,138.183537 C880.695999,139.561787 876.163822,141.400785 871.846389,143.673537 L867.256389,134.323537 C872.510625,131.725764 878.002589,129.639487 883.656389,128.093537 C888.580379,126.785391 893.651633,126.113256 898.746389,126.093537 C909.126389,126.093537 917.126389,128.553537 922.746389,133.473537 C928.366389,138.393537 931.183056,145.44687 931.196389,154.633537 L931.196389,209.903537 L919.376389,209.903537 L919.376389,201.903537 C915.771279,204.997245 911.629462,207.403702 907.156389,209.003537 C902.547678,210.625685 897.692074,211.434388 892.806389,211.393537 L892.836389,211.393537 Z M874.116389,186.303537 C874.058277,190.784144 876.24197,194.997697 879.936389,197.533537 C883.816389,200.433537 888.816389,201.883537 894.936389,201.883537 C899.522618,201.945415 904.081325,201.165859 908.386389,199.583537 C912.528263,197.997998 916.280014,195.538895 919.386389,192.373537 L919.386389,177.003537 C916.05445,174.739326 912.366751,173.049271 908.476389,172.003537 C904.272987,170.923393 899.946126,170.398925 895.606389,170.443537 C889.046389,170.443537 883.826389,171.893537 879.946389,174.793537 C876.207747,177.420102 874.021951,181.735456 874.116389,186.303537 L874.116389,186.303537 Z M958.406389,191.553537 L958.406389,138.083537 L940.696389,138.083537 L940.696389,127.753537 L958.406389,127.753537 L958.406389,106.923537 L970.406389,103.813537 L970.406389,127.753537 L995.176389,127.753537 L995.176389,138.083537 L970.376389,138.083537 L970.376389,188.433537 C970.376389,192.813537 971.376389,195.95687 973.376389,197.863537 C975.376389,199.770204 978.599722,200.72687 983.046389,200.733537 C985.106933,200.754896 987.165223,200.590902 989.196389,200.243537 C991.176814,199.865812 993.12076,199.31709 995.006389,198.603537 L995.006389,209.263537 C992.741262,210.068674 990.393424,210.618739 988.006389,210.903537 C985.532751,211.226141 983.040973,211.38981 980.546389,211.393537 C973.439722,211.393537 967.973056,209.700204 964.146389,206.313537 C960.319722,202.92687 958.406389,198.00687 958.406389,191.553537 Z M1001.70562,168.753537 C1001.67584,163.005763 1002.79795,157.310197 1005.00639,152.003537 C1007.07569,146.930094 1010.11207,142.307591 1013.94639,138.393537 C1021.79253,130.474068 1032.4783,126.018741 1043.62639,126.018741 C1054.77448,126.018741 1065.46024,130.474068 1073.30639,138.393537 C1077.13753,142.310149 1080.17348,146.931993 1082.24639,152.003537 C1086.62032,162.783421 1086.62032,174.843653 1082.24639,185.623537 C1080.17597,190.699351 1077.1398,195.324928 1073.30639,199.243537 C1069.50558,203.076744 1064.99506,206.133574 1060.02639,208.243537 C1054.86791,210.441329 1049.31344,211.557668 1043.70639,211.524297 C1032.53963,211.573649 1021.81932,207.142878 1013.94639,199.223537 C1010.10979,195.307495 1007.07318,190.681256 1005.00639,185.603537 C1002.79394,180.263072 1001.67193,174.534049 1001.70562,168.753537 L1001.70562,168.753537 Z M1043.70639,200.754041 C1047.7469,200.777611 1051.746,199.938924 1055.43639,198.293537 C1059.03515,196.695975 1062.27089,194.382301 1064.94639,191.493537 C1067.66604,188.527084 1069.80624,185.077658 1071.25639,181.323537 C1074.32328,173.241366 1074.32328,164.315708 1071.25639,156.233537 C1069.81992,152.496504 1067.67762,149.070866 1064.94639,146.143537 C1062.25384,143.294526 1059.021,141.010119 1055.43639,139.423537 C1047.96386,136.143267 1039.45891,136.143267 1031.98639,139.423537 C1028.39741,141.007566 1025.16081,143.292221 1022.46639,146.143537 C1019.72713,149.079981 1017.56002,152.501908 1016.07639,156.233537 C1014.4683,160.216991 1013.65961,164.4779 1013.69639,168.773537 C1013.65667,173.065183 1014.43734,177.324892 1015.99639,181.323537 C1017.44653,185.077658 1019.58674,188.527084 1022.30639,191.493537 C1027.84076,197.423061 1035.59542,200.778581 1043.70639,200.754041 L1043.70639,200.754041 Z M1102.41639,209.943537 L1102.41639,127.753537 L1114.55639,127.753537 L1114.55639,139.403537 C1116.79173,135.310243 1120.07346,131.883585 1124.06639,129.473537 C1128.14197,127.0887 1132.79505,125.870943 1137.51639,125.953537 C1138.88683,125.944092 1140.25641,126.024263 1141.61639,126.193537 C1142.84814,126.370282 1144.05804,126.675272 1145.22639,127.103537 L1145.22639,138.253537 C1143.82259,137.823019 1142.39732,137.465869 1140.95639,137.183537 C1139.55241,136.913431 1138.12611,136.776158 1136.69639,136.773537 C1131.90438,136.695177 1127.22465,138.226917 1123.40639,141.123537 C1119.32565,144.378525 1116.25599,148.728078 1114.55639,153.663537 L1114.55639,209.923537 L1102.41639,209.943537 Z M1165.20639,112.003537 C1160.72426,111.892947 1157.11698,108.285665 1157.00639,103.803537 C1156.96496,101.602658 1157.859,99.487489 1159.46639,97.9835371 C1160.98087,96.4491834 1163.05053,95.5910336 1165.20639,95.6035371 C1167.38689,95.5846806 1169.48357,96.4425501 1171.02547,97.984455 C1172.56738,99.5263599 1173.42525,101.623036 1173.40639,103.803537 C1173.41889,105.959399 1172.56074,108.029055 1171.02639,109.543537 C1169.52244,111.15093 1167.40727,112.044971 1165.20639,112.003537 Z M1171.27639,127.743537 L1171.27639,209.913537 L1159.14639,209.913537 L1159.14639,127.753537 L1171.27639,127.743537 Z M1203.58639,127.743537 L1203.58639,177.273537 C1203.58639,184.493537 1205.66306,190.233537 1209.81639,194.493537 C1213.96972,198.753537 1219.54639,200.88687 1226.54639,200.893537 C1235.86279,201.085912 1244.54113,196.177262 1249.17639,188.093537 L1249.17639,127.753537 L1261.31639,127.753537 L1261.31639,209.923537 L1249.17639,209.923537 L1249.17639,200.403537 C1246.13302,204.026897 1242.28832,206.892446 1237.94639,208.773537 C1233.34856,210.688189 1228.40639,211.63782 1223.42639,211.563537 C1214.02639,211.563537 1206.35972,208.610204 1200.42639,202.703537 C1194.49306,196.79687 1191.54306,189.130204 1191.57611,179.703537 L1191.57611,127.703537 L1203.58639,127.743537 Z M1282.00639,209.923537 L1282.00639,127.753537 L1294.14639,127.753537 L1294.14639,136.753537 C1297.06696,133.334095 1300.70708,130.602298 1304.80639,128.753537 C1309.04271,126.90476 1313.62465,125.980872 1318.24639,126.043537 C1323.62836,125.956814 1328.93205,127.339784 1333.58639,130.043537 C1338.04002,132.662251 1341.6893,136.453343 1344.13639,141.003537 C1347.18449,136.279645 1351.3869,132.41109 1356.34639,129.763537 C1361.30245,127.25665 1366.79301,125.99039 1372.34639,126.073537 C1381.20639,126.073537 1388.44972,129.02687 1394.07639,134.933537 C1399.70306,140.840204 1402.51972,148.50687 1402.52639,157.933537 L1402.52639,209.933537 L1390.52639,209.933537 L1390.52639,160.393537 C1390.52639,153.173537 1388.61306,147.433537 1384.78639,143.173537 C1380.95972,138.913537 1375.76639,136.780204 1369.20639,136.773537 C1364.86199,136.732414 1360.59568,137.929062 1356.90639,140.223537 C1352.97359,142.737842 1349.7101,146.169479 1347.39639,150.223537 C1347.60639,151.423537 1347.80639,152.653537 1347.96639,153.913537 C1348.13351,155.24031 1348.21701,156.576281 1348.21639,157.913537 L1348.21639,209.913537 L1336.21639,209.913537 L1336.21639,160.393537 C1336.21639,153.173537 1334.30306,147.433537 1330.47639,143.173537 C1326.64972,138.913537 1321.51306,136.780204 1315.06639,136.773537 C1310.90745,136.704108 1306.80455,137.739323 1303.17639,139.773537 C1299.45351,141.954817 1296.32748,145.022448 1294.07639,148.703537 L1294.07639,209.883537 L1282.00639,209.923537 Z M283.756837,227.423537 L283.756837,196.003537 L283.756837,152.453537 C283.775712,146.192103 283.169367,139.944405 281.946389,133.803537 L281.946389,133.803537 C281.95106,133.74029 281.95106,133.676784 281.946389,133.613537 C281.335905,130.576705 280.571587,127.572836 279.656389,124.613537 C279.640731,124.561908 279.620657,124.511723 279.596389,124.463537 C278.509063,120.982952 277.223632,117.567379 275.746389,114.233537 L274.596389,113.903537 C269.376389,117.333537 261.596389,122.363537 259.596389,123.713537 C259.286085,123.916237 259.164221,124.311245 259.306389,124.653537 C274.113136,162.053515 257.170946,204.510174 220.683519,221.441381 C184.196092,238.372587 140.836113,223.897854 121.836389,188.443537 C121.659061,188.119853 121.281247,187.962084 120.926389,188.063537 L94.2863891,195.793537 C93.9482772,195.891573 93.7163881,196.2015 93.7163881,196.553537 C93.7763891,213.053537 93.8363891,227.553537 93.8363891,227.553537 C93.8363891,254.553537 132.166389,269.383537 174.386389,272.135103 C174.607084,272.147358 174.823657,272.069214 174.984682,271.917661 C175.145708,271.766108 175.236821,271.554664 175.236389,271.333537 L175.236389,246.373537 C175.238836,246.155989 175.329779,245.948821 175.488263,245.79977 C175.646747,245.65072 175.8591,245.572645 176.076389,245.583537 C184.589344,246.073535 193.123434,246.073535 201.636389,245.583537 C201.852751,245.572568 202.064123,245.650932 202.221045,245.800291 C202.377967,245.94965 202.466667,246.156898 202.466389,246.373537 L202.466389,271.203537 C202.465957,271.424664 202.557071,271.636108 202.718096,271.787661 C202.879121,271.939214 203.095694,272.017358 203.316389,272.003537 C245.396389,269.253537 283.726389,254.393537 283.726389,227.423537 L283.756837,227.423537 Z M119.756391,249.423537 C119.757,249.696992 119.61615,249.951315 119.384032,250.09588 C119.151914,250.240444 118.861542,250.254689 118.616389,250.133537 C110.006389,245.863537 100.006348,238.093537 100.006348,229.633537 L100.006348,219.833537 C100.002974,219.498567 100.211192,219.197862 100.525945,219.083201 C100.840699,218.968541 101.193546,219.064858 101.406389,219.323537 C106.278037,225.089453 112.367498,229.703509 119.236389,232.833537 C119.51188,232.967573 119.686629,233.24717 119.686389,233.553537 L119.756391,249.423537 Z M156.116389,261.143537 C148.789293,260.02696 141.548552,258.403056 134.446389,256.283537 C134.114214,256.179076 133.887762,255.871747 133.886389,255.523537 L133.886389,239.523537 C133.886881,239.277204 134.00225,239.045198 134.198372,238.896146 C134.394493,238.747093 134.648918,238.698055 134.886389,238.763537 C141.922818,240.837672 149.092888,242.428051 156.346389,243.523537 C156.731521,243.582725 157.015978,243.913884 157.016389,244.303537 L157.016389,260.373537 C157.023127,260.614086 156.921225,260.844889 156.738927,261.001976 C156.556628,261.159063 156.313302,261.225744 156.076389,261.183537 L156.116389,261.143537 Z M258.176389,232.793537 C265.041384,229.675099 271.130522,225.074948 276.006389,219.323537 C276.222557,219.06874 276.574315,218.975131 276.888534,219.088785 C277.202752,219.202438 277.413236,219.499411 277.416389,219.833537 L277.416389,229.633537 C277.416389,238.093537 267.416389,245.863537 258.876389,250.173537 C258.629949,250.293462 258.339271,250.278884 258.106066,250.134905 C257.872861,249.990926 257.729592,249.737589 257.726389,249.463537 L257.726389,233.553537 C257.718447,233.255946 257.876404,232.978558 258.136389,232.833537 L258.176389,232.793537 Z M221.116389,243.503537 C228.370091,242.409128 235.540234,240.818733 242.576389,238.743537 C242.81386,238.678055 243.068285,238.727093 243.264406,238.876146 C243.460528,239.025198 243.575897,239.257204 243.576389,239.503537 L243.576389,255.503537 C243.575017,255.851747 243.348564,256.159076 243.016389,256.263537 C235.914503,258.384118 228.673688,260.008038 221.346389,261.123537 C221.116066,261.158481 220.881952,261.091293 220.705212,260.939528 C220.528473,260.787762 220.426665,260.566496 220.426385,260.333537 L220.426385,244.323537 C220.425175,243.940291 220.699207,243.611453 221.076389,243.543537 L221.116389,243.503537 Z M188.746389,177.503537 C202.603213,177.503537 213.836389,166.270361 213.836389,152.413537 C213.836389,138.556713 202.603213,127.323537 188.746389,127.323537 C174.889565,127.323537 163.656389,138.556713 163.656389,152.413537 C163.661875,166.252478 174.867475,177.475971 188.706389,177.503537 L188.746389,177.503537 Z M188.526389,129.843537 C193.136389,129.843537 196.876389,132.573537 196.876389,135.943537 C196.876389,139.313537 193.136389,142.043537 188.526389,142.043537 C183.916389,142.043537 180.176389,139.313537 180.176389,135.943537 C180.176389,132.573537 183.876389,129.843537 188.486389,129.843537 L188.526389,129.843537 Z M21.5263891,188.493537 C22.8123361,191.305183 24.3697238,193.984559 26.1763891,196.493537 C29.5734324,201.111946 34.9732418,203.828574 40.7063891,203.803709 C42.2770794,203.804813 43.8409045,203.596303 45.3563891,203.183537 C46.4663891,202.933537 98.7763891,187.753537 117.896389,182.183537 C118.111265,182.12333 118.290063,181.973974 118.387559,181.773248 C118.485054,181.572522 118.491909,181.33965 118.406389,181.133537 C111.06786,163.065833 110.942581,142.870895 118.056389,124.713537 C118.141711,124.504701 118.133682,124.26935 118.034325,124.066814 C117.934968,123.864278 117.753762,123.713881 117.536389,123.653537 C99.2163891,118.853537 46.7963891,105.123537 45.6563891,104.863537 C38.6293591,102.995839 31.1608365,105.431822 26.5863891,111.083537 C26.3705021,111.269987 26.3189261,111.584187 26.4638784,111.829868 C26.6088306,112.07555 26.9087921,112.182343 27.1763891,112.083537 C30.3303104,111.274795 33.549474,110.746076 36.7963891,110.503537 C46.4063891,110.503537 54.5663891,116.143537 59.7963891,126.363537 C63.6663891,133.943537 65.7963891,143.823537 65.7963891,154.173537 C65.7963891,164.523537 63.6563891,174.383537 59.7963891,181.953537 C56.4263891,188.533537 51.7963891,193.213537 46.4463891,195.713537 C45.297389,196.22814 43.9469586,195.745829 43.3839279,194.619768 C42.8208972,193.493706 43.2453065,192.123975 44.3463891,191.513537 L44.6063891,191.383537 C49.0163891,189.293537 52.8063891,185.383537 55.6063891,179.823537 C59.1463891,172.903537 61.1063891,163.823537 61.1163891,154.173537 C61.1263891,144.523537 59.1763891,135.423537 55.6263891,128.483537 C51.2463891,119.903537 44.5663891,115.173537 36.8263891,115.163537 L36.8263891,115.163537 C31.6526168,115.36348 26.5790499,116.651464 21.9363891,118.943537 C21.9172412,118.995386 21.8938277,119.045558 21.8663891,119.093537 C19.1625241,120.39346 16.6075905,121.98275 14.2463891,123.833537 C7.72638911,128.863537 0.0063891119,138.243537 0.0063891119,154.113537 C-0.216486396,166.076479 5.4031357,177.397816 15.0663891,184.453537 C17.0892302,185.966304 19.2369559,187.304451 21.4863891,188.453537 L21.5263891,188.493537 Z M6.87638911,139.003537 C6.87638911,139.003537 8.00638911,135.003537 10.8763891,135.053537 C13.7463891,135.103537 16.2863891,136.813537 16.2863891,138.993537 C16.2863891,141.173537 13.8763891,142.943537 10.8863891,142.993537 C7.89638911,143.043537 6.15638911,141.723537 6.87638911,139.003537 Z M10.6663891,173.583537 C10.4876397,173.328783 10.4774301,172.992153 10.6404125,172.727035 C10.8033948,172.461917 11.1083764,172.319052 11.4163891,172.363537 C12.0017601,172.460974 12.5931735,172.517777 13.1863891,172.533537 C22.5563891,172.533537 30.1863891,163.703537 30.1263891,152.843537 C30.0663891,141.983537 22.4963891,133.183537 13.1263891,133.203537 L12.8463891,133.203537 C12.5378944,133.22183 12.2483511,133.053913 12.1110184,132.777067 C11.9736857,132.500222 12.0151741,132.168092 12.2163891,131.933537 C13.6529289,130.245196 15.2541773,128.704245 16.9963891,127.333537 C23.6663891,122.093537 31.7263891,119.763537 36.7763891,119.753537 C49.6763891,119.753537 56.4163891,137.033537 56.4064002,154.083537 C56.3963891,171.133537 49.6363891,188.363537 36.7563891,188.383537 L36.7563891,188.383537 C33.3263891,188.383537 25.1663891,186.313537 17.8363891,180.783537 C15.1098031,178.755656 12.6942702,176.340123 10.6663891,173.613537 L10.6663891,173.583537 Z M256.256389,118.083537 C272.206389,107.543537 319.006389,76.5535371 319.906389,75.8535371 C326.007569,71.6178613 328.901862,64.0847689 327.206389,56.8535371 C326.45471,53.8588499 325.420056,50.9423985 324.116389,48.1435371 L324.116389,48.1435371 C324.688587,45.6756746 325.046584,43.1630056 325.186389,40.6335371 C326.0553,28.7025173 321.054738,17.0967344 311.786389,9.53353712 C299.666389,-0.686462884 287.526389,-0.876462884 279.476389,0.773537116 C276.538286,1.3772904 273.674719,2.29939921 270.936389,3.52353712 L270.766389,3.52353712 C266.015372,5.57867601 261.754785,8.61903055 258.266389,12.4435371 L258.266389,12.4435371 C253.266389,18.3535371 252.556389,26.5035371 256.266389,35.4435371 C259.266389,42.6235371 264.966389,50.0035371 272.316389,56.2235371 C279.666389,62.4435371 287.876389,66.8435371 295.446389,68.6135371 C301.506389,70.0335371 306.956389,69.6835371 311.446389,67.6735371 L311.706389,67.5535371 C312.874186,67.139021 314.163179,67.7025265 314.651955,68.841241 C315.14073,69.9799555 314.661305,71.3025269 313.556389,71.8635371 C308.156389,74.3735371 301.626389,74.8635371 294.426389,73.1635371 C286.146389,71.2235371 277.236389,66.4735371 269.336389,59.7935371 C261.436389,53.1135371 255.226389,45.0035371 251.946389,37.1635371 C247.526389,26.5735371 248.496389,16.7135371 254.706389,9.37353712 C257.001098,7.05799024 259.490224,4.94357132 262.146389,3.05353712 C262.337943,2.90027734 262.414675,2.64447606 262.339101,2.41108751 C262.263528,2.17769896 262.05142,2.01542645 261.806389,2.00353712 C254.532447,1.82995649 247.838657,5.95674877 244.726389,12.5335371 C244.176389,13.5335371 219.996389,64.0235371 212.196389,80.3035371 C231.300987,86.5919087 247.140879,100.18488 256.256389,118.113537 L256.256389,118.083537 Z M290.256389,5.53353712 C292.116389,3.33353712 295.866389,5.03353712 295.866389,5.03353712 C298.386389,6.22353712 298.206389,8.37353712 296.276389,10.6535371 C294.346389,12.9335371 291.426389,13.6535371 289.766389,12.2135371 C288.106389,10.7735371 288.296389,7.84353712 290.226389,5.56353712 L290.256389,5.53353712 Z M314.256389,59.7335371 L314.256389,59.7335371 C305.906389,69.5435371 288.396389,63.5435371 275.386389,52.5335371 C262.376389,41.5235371 253.556389,25.2135371 261.886389,15.3635371 C265.166389,11.5235371 272.156389,6.87353712 280.456389,5.17353712 C282.628237,4.7286749 284.839448,4.5042035 287.056389,4.50345049 C287.366231,4.49890424 287.64866,4.68045638 287.773093,4.96425152 C287.897526,5.24804665 287.839715,5.57878106 287.626389,5.80353712 L287.436389,6.01353712 C281.366389,13.1535371 283.156389,24.6435371 291.436389,31.6835371 C299.716389,38.7235371 311.336389,38.6835371 317.436389,31.4935371 C317.803057,31.0305609 318.137191,30.5427251 318.436389,30.0335371 C318.597606,29.7646741 318.905728,29.620392 319.215474,29.6687211 C319.52522,29.7170503 319.774742,29.9483407 319.846389,30.2535371 C320.633529,33.5622595 320.933358,36.968182 320.736389,40.3635371 C320.126389,49.5835371 316.416389,57.1435371 314.206389,59.7635371 L314.256389,59.7335371 Z M40.4163891,53.2935371 C37.8110739,59.6348644 40.2183036,66.928728 46.0863891,70.4735371 L99.5963891,103.003537 C99.7639935,103.103799 99.9651377,103.131672 100.15369,103.080763 C100.342242,103.029853 100.502024,102.904531 100.596389,102.733537 C106.575238,92.1883121 114.391587,82.7971786 123.676389,75.0035371 C123.964331,74.7478678 124.011871,74.315683 123.786389,74.0035371 L86.4663891,26.1035371 C85.1352816,24.4319189 82.8518055,23.8549115 80.8863891,24.6935371 C80.420227,24.8963231 79.8902754,24.8937252 79.4261238,24.6863788 C78.9619721,24.4790323 78.6064122,24.0860534 78.4463891,23.6035371 C78.1537606,22.6642462 78.6389735,21.6588502 79.5563891,21.3035371 C83.0170536,19.8758441 87.0048855,20.9166805 89.3263891,23.8535371 L126.616389,71.6635371 C126.864037,71.9624355 127.30055,72.0191822 127.616389,71.7935371 C128.156389,71.3735371 128.716389,70.9635371 129.266389,70.5635371 C129.579856,70.3274042 129.650531,69.8856874 129.426389,69.5635371 L93.3063891,22.3435371 C89.5244317,17.422643 82.9955218,15.5104607 77.1563891,17.6135371 C68.9263891,10.8635371 55.6763891,11.8635371 46.3163891,20.3935371 C41.5449467,24.6227657 38.4328912,30.4109053 37.5363891,36.7235371 C36.7476566,41.9519507 38.051952,47.2805184 41.1663891,51.5535371 C40.8963891,52.1535371 40.6463891,52.7435371 40.4163891,53.2935371 Z M41.1463891,37.1835371 C41.941629,31.7311643 44.6410221,26.7362242 48.7663891,23.0835371 C56.1963891,16.3235371 66.3963891,14.9835371 73.2963891,19.3135371 C66.8319234,22.4841031 60.860087,26.5731101 55.5663891,31.4535371 C50.481284,36.1274511 46.2333336,41.6369345 43.0063891,47.7435371 C41.2593251,44.5177905 40.6066146,40.8120792 41.1463891,37.1835371 L41.1463891,37.1835371 Z M164.256389,209.833537 C187.634302,219.685459 214.645277,214.479048 232.686389,196.643537 C238.336287,190.962517 242.817482,184.228834 245.876389,176.823537 C252.318698,161.198193 252.318698,143.658881 245.876389,128.033537 C236.23945,104.980783 213.63187,90.0328393 188.646389,90.1935371 C180.275419,90.1379304 171.979487,91.7739876 164.256389,95.0035371 C149.28126,101.140823 137.393675,113.028408 131.256389,128.003537 C124.829286,143.631889 124.829286,161.165185 131.256389,176.793537 C137.393675,191.768666 149.28126,203.656251 164.256389,209.793537 L164.256389,209.833537 Z M139.856389,152.423537 C139.811723,145.660828 141.103097,138.955879 143.656389,132.693537 C146.014892,126.793571 149.495901,121.407346 153.906389,116.833537 C158.306161,112.344255 163.550018,108.769052 169.336389,106.313537 C175.437378,103.704865 182.011272,102.383958 188.646389,102.433537 C201.634569,102.388434 214.092892,107.579402 223.206389,116.833537 C227.616683,121.409473 231.100621,126.794976 233.466389,132.693537 C236.016258,138.956573 237.304229,145.661498 237.256389,152.423537 C237.351248,165.636558 232.314248,178.370667 223.206389,187.943537 C218.823758,192.473283 213.576896,196.077738 207.776389,198.543537 C201.735177,201.14115 195.222281,202.462114 188.646389,202.423537 C182.011272,202.473116 175.437378,201.152209 169.336389,198.543537 C163.535882,196.077738 158.28902,192.473283 153.906389,187.943537 C144.810175,178.363231 139.775112,165.634017 139.856389,152.423537 L139.856389,152.423537 Z M188.556389,57.3235177 C197.000465,57.3208356 205.407431,58.4406435 213.556389,60.6535371 C213.783438,60.7158661 213.970853,60.8762205 214.067554,61.0908954 C214.164254,61.3055703 214.160161,61.5521897 214.056389,61.7635371 C209.526389,71.2935371 206.006389,78.5435371 206.006389,78.5435371 L206.006389,78.5435371 C172.1677,70.5733475 137.23479,86.5799753 121.176389,117.413537 C121.009142,117.743361 120.633279,117.910411 120.276389,117.813537 L102.856389,113.253537 C102.63052,113.192191 102.442843,113.035009 102.342814,112.823409 C102.242785,112.611809 102.240437,112.367017 102.336389,112.153537 C117.985408,78.6800982 151.605579,57.299978 188.556389,57.3235177 Z M138.256389,63.8235371 C138.34182,64.0031186 138.497723,64.1393682 138.687128,64.199978 C138.876534,64.2605877 139.082573,64.2401595 139.256389,64.1435371 C148.472122,58.9870504 158.440082,55.3089609 168.796389,53.2435371 L172.376389,52.5935371 C183.067944,50.824173 193.97514,50.7937814 204.676389,52.5035371 C204.87809,52.5378543 205.084935,52.4859512 205.246538,52.3604711 C205.408141,52.2349909 205.509669,52.0474521 205.526389,51.8435371 L206.526389,40.5335371 C207.079375,34.5498863 203.773892,28.874738 198.296389,26.4035371 C196.465867,25.5875241 194.573205,24.918739 192.636389,24.4035371 C191.346744,22.6255884 189.871794,20.989735 188.236389,19.5235371 C183.606389,15.3735371 175.596389,10.8735371 163.776389,12.9535371 L163.696389,12.9535371 C154.791296,14.3799716 147.134807,20.0449532 143.166389,28.1435371 C142.329689,29.7861794 141.630628,31.4953677 141.076389,33.2535371 C139.118728,34.6000551 137.296802,36.1339562 135.636389,37.8335371 C131.706609,41.9749172 130.732697,48.1085791 133.186389,53.2635371 L138.256389,63.8235371 Z M146.466389,29.8235371 C149.937203,22.754071 156.621283,17.8071808 164.396389,16.5535371 L164.466389,16.5535371 C174.846389,14.7235371 181.836389,18.6435371 185.866389,22.2435371 C186.226389,22.5735371 186.566389,22.9035371 186.866389,23.2435371 C179.762384,22.3604419 172.563396,22.6068208 165.536389,23.9735371 C158.835198,25.0725562 152.336429,27.1691509 146.256389,30.1935371 L146.466389,29.8235371 Z M136.696389,43.4735371 C138.106389,39.7435371 143.836389,32.9735371 166.326389,28.9535371 C189.966389,24.7335371 198.176389,29.5535371 200.836389,32.3635371 C201.168369,32.7072116 201.312593,33.1908009 201.223093,33.6601756 C201.133594,34.1295503 200.82154,34.5261375 200.386389,34.7235371 L200.156389,34.8335371 C199.369961,35.1998006 198.442757,35.0790303 197.776389,34.5235371 C195.566389,32.6335371 188.516389,28.9935371 168.776389,32.2335371 L165.186389,32.8735371 C145.806389,36.6135371 141.276389,42.1735371 140.186389,44.5235371 C139.863004,45.2202293 139.199679,45.6978234 138.436389,45.7835371 C137.847191,45.8392631 137.271415,45.584552 136.916319,45.1110899 C136.561222,44.6376279 136.477917,44.0135641 136.696389,43.4635371 L136.696389,43.4735371 Z" id="Shape" fill="#2B388F" fill-rule="nonzero"></path>
    </g>
</svg>