<?xml version="1.0" encoding="UTF-8"?>
<svg width="1079px" height="880px" viewBox="0 0 1079 880" version="1.1" xmlns="http://www.w3.org/2000/svg" xmlns:xlink="http://www.w3.org/1999/xlink">
    <title>ObservatoriumFinal_Blue_Vertical</title>
    <g id="ObservatoriumFinal_Blue_Vertical" stroke="none" stroke-width="1" fill="none" fill-rule="evenodd">
        <path d="M802.17,573.87 L802.17,494.49 L802.09,384.58 C802.13866,368.780239 800.607715,353.015187 797.52,337.52 L797.52,337.46 C797.52,337.3 797.45,337.14 797.42,336.98 C795.873333,329.293333 793.946667,321.68 791.64,314.14 C791.597891,314.00731 791.540859,313.879828 791.47,313.76 C788.736248,304.9817 785.500928,296.367535 781.78,287.96 L778.87,287.1 C765.69,295.77 746.17,308.46 740.87,311.87 C740.103473,312.392727 739.797088,313.373988 740.13,314.24 C748.878866,336.384638 753.410057,359.969892 753.49,383.78 C753.95,488.78 668.73,575.2 563.71,576.12 C492.55332,576.781269 426.901357,537.920052 393.25,475.22 C392.814455,474.392148 391.863262,473.976779 390.96,474.22 L323.73,493.72 C322.877064,493.973584 322.294246,494.760185 322.299958,495.65 C322.44,537.28 322.58,573.84 322.58,573.84 C322.58,641.91 419.3,679.4 525.86,686.33 C526.414244,686.364911 526.959689,686.175479 527.365615,685.796108 C527.771542,685.416738 528.001363,684.885605 528,684.33 L528,621.7 C527.999167,621.149946 528.224913,620.623831 528.624127,620.245429 C529.023341,619.867027 529.560778,619.669746 530.11,619.7 C551.589072,620.930013 573.120928,620.930013 594.6,619.7 C595.149222,619.669746 595.686659,619.867027 596.085873,620.245429 C596.485087,620.623831 596.710833,621.149946 596.71,621.7 L596.71,684.36 C596.708637,684.915605 596.938458,685.446738 597.344385,685.826108 C597.750311,686.205479 598.295756,686.398894 598.85,686.36 C705.45,679.43 802.17,641.94 802.17,573.87 Z M388.330049,629.48 C388.334866,630.176744 387.97677,630.825802 387.384774,631.193248 C386.792779,631.560694 386.052219,631.593559 385.43,631.28 C363.81,620.41 338.65,600.8 338.65,579.45 L338.65,554.71 C338.657518,553.873099 339.18534,553.129382 339.972858,552.846054 C340.760376,552.562726 341.641029,552.799711 342.18,553.44 C353.13,566.8 367.76,578.17 387.18,587.54 C387.874568,587.870805 388.317822,588.570681 388.32,589.34 L388.330049,629.48 Z M480.07,659.06 C461.581641,656.247873 443.310988,652.154685 425.39,646.81 C424.548552,646.550221 423.976037,645.770627 423.97998,644.89 L423.97998,604.46 C423.982222,603.829893 424.281258,603.237679 424.786995,602.86182 C425.292731,602.485961 425.946023,602.370415 426.55,602.55 C444.300619,607.784907 462.389861,611.794343 480.69,614.55 C481.676076,614.699539 482.401274,615.552713 482.39013,616.55 L482.39013,657.11 C482.382953,657.692101 482.122632,658.242244 481.676995,658.616809 C481.231358,658.991375 480.644637,659.153186 480.07,659.06 L480.07,659.06 Z M737.6,587.54 C757.03,578.17 771.66,566.8 782.6,553.44 C783.138971,552.799711 784.019624,552.562726 784.807142,552.846054 C785.59466,553.129382 786.122482,553.873099 786.13,554.71 L786.13,579.45 C786.13,600.8 760.97,620.45 739.35,631.28 C738.727781,631.593559 737.987221,631.560694 737.395226,631.193248 C736.80323,630.825802 736.445134,630.176744 736.449951,629.48 L736.449951,589.34 C736.454012,588.568397 736.901536,587.867925 737.6,587.54 L737.6,587.54 Z M644.1,614.54 C662.400139,611.784343 680.489381,607.774907 698.24,602.54 C698.843977,602.360415 699.497269,602.475961 700.003005,602.85182 C700.508742,603.227679 700.807778,603.819893 700.81002,604.45 L700.81002,644.88 C700.813963,645.760627 700.241448,646.540221 699.4,646.8 C681.479012,652.144685 663.208359,656.237873 644.72,659.05 C644.136736,659.144591 643.541496,658.976425 643.093954,658.590613 C642.646413,658.204801 642.39238,657.640835 642.399833,657.05 L642.399833,616.51 C642.403635,615.524077 643.125224,614.687883 644.1,614.54 Z M817.86,794.11 C819.088731,794.285543 820.295445,794.590574 821.46,795.02 L821.46,806.17 C820.059899,805.738331 818.637905,805.381163 817.2,805.1 C815.796021,804.829894 814.369723,804.692621 812.94,804.69 C808.152685,804.600152 803.473421,806.117656 799.65,809 C795.566412,812.252303 792.496115,816.602758 790.8,821.54 L790.8,877.8 L778.66,877.8 L778.66,795.67 L790.8,795.67 L790.8,807.32 C793.035345,803.226706 796.317069,799.800048 800.31,797.39 C804.384987,795.003722 809.038478,793.785856 813.76,793.87 C815.130437,793.860555 816.500025,793.940726 817.86,794.11 Z M749.55,806.33 C745.749191,802.496793 741.23867,799.439964 736.27,797.33 C731.13061,795.121746 725.593709,793.988502 720,793.999609 C708.830657,793.951692 698.107915,798.381982 690.23,806.3 C686.402047,810.217167 683.369476,814.839035 681.3,819.91 C676.926073,830.689884 676.926073,842.750116 681.3,853.53 C683.366762,858.605354 686.39958,863.230995 690.23,867.15 C698.102956,875.079025 708.826315,879.520376 720,879.48076 C725.607054,879.51413 731.161518,878.397792 736.32,876.2 C741.28867,874.090036 745.799191,871.033207 749.6,867.2 C753.430244,863.278844 756.465985,858.653923 758.54,853.58 C762.913927,842.800116 762.913927,830.739884 758.54,819.96 C756.450645,814.879273 753.397862,810.250861 749.55,806.33 L749.55,806.33 Z M747.55,849.22 C746.099855,852.97412 743.95965,856.423547 741.24,859.39 C738.564499,862.278764 735.328758,864.592438 731.73,866.19 C728.039324,867.834506 724.040415,868.673152 720,868.650467 C711.889027,868.675044 704.13437,865.319524 698.6,859.39 C695.877155,856.424088 693.733572,852.974683 692.28,849.22 C690.729084,845.219353 689.951985,840.96058 689.99,836.67 C689.953224,832.374363 690.761913,828.113454 692.37,824.13 C693.836731,820.389325 695.98665,816.954203 698.71,814 C701.402546,811.150989 704.63539,808.866582 708.22,807.28 C715.696163,804.000486 724.203837,804.000486 731.68,807.28 C735.26461,808.866582 738.497454,811.150989 741.19,814 C743.919052,816.929001 746.061071,820.354193 747.5,824.09 C750.566889,832.172171 750.566889,841.097829 747.5,849.18 L747.55,849.22 Z M562.4,447.9 C597.37067,447.9 625.72,419.55067 625.72,384.58 C625.72,349.60933 597.37067,321.26 562.4,321.26 C527.42933,321.26 499.08,349.60933 499.08,384.58 C499.08,419.55067 527.42933,447.9 562.4,447.9 L562.4,447.9 Z M561.85,327.63 C573.49,327.63 582.93,334.53 582.93,343.03 C582.93,351.53 573.49,358.43 561.85,358.43 C550.21,358.43 540.78,351.54 540.78,343.03 C540.78,334.52 550.21,327.63 561.85,327.63 Z M835.4,795.63 L847.54,795.63 L847.54,877.8 L835.4,877.8 L835.4,795.63 Z M847.29,765.87 C848.856506,767.395734 849.718569,769.503806 849.67,771.69 C849.682503,773.845862 848.824354,775.915518 847.29,777.43 C845.786048,779.037393 843.670879,779.931434 841.47,779.89 C836.987872,779.77941 833.38059,776.172128 833.27,771.69 C833.228566,769.489121 834.122607,767.373952 835.73,765.87 C837.244482,764.335646 839.314138,763.477497 841.47,763.49 C843.662188,763.451865 845.77115,764.328787 847.29,765.91 L847.29,765.87 Z M1078.78,825.81 L1078.78,877.81 L1066.78,877.81 L1066.78,828.31 C1066.78,821.09 1064.86667,815.35 1061.04,811.09 C1057.21333,806.83 1052.02,804.696667 1045.46,804.69 C1041.1156,804.648877 1036.84929,805.845525 1033.16,808.14 C1029.22787,810.658295 1025.96198,814.088849 1023.64,818.14 C1023.86,819.35 1024.05,820.57 1024.22,821.83 C1024.38349,823.15701 1024.46364,824.492962 1024.46,825.83 L1024.46,877.83 L1012.46,877.83 L1012.46,828.31 C1012.46,821.09 1010.54667,815.35 1006.72,811.09 C1002.89333,806.83 997.756667,804.696667 991.31,804.69 C987.151064,804.620571 983.04816,805.655786 979.42,807.69 C975.696242,809.873601 972.567469,812.940554 970.31,816.62 L970.31,877.8 L958.24,877.8 L958.24,795.67 L970.37,795.67 L970.37,804.67 C973.292603,801.252728 976.932201,798.521323 981.03,796.67 C985.27315,794.835909 989.85802,793.925753 994.48,794 C999.861973,793.913277 1005.16566,795.296247 1009.82,798 C1014.28962,800.622641 1017.94758,804.429406 1020.39,809 C1023.44461,804.277982 1027.64968,800.410149 1032.61,797.76 C1037.56606,795.253113 1043.05662,793.986852 1048.61,794.07 C1057.47,794.07 1064.71333,797.023333 1070.34,802.93 C1075.96667,808.836667 1078.78,816.476667 1078.78,825.85 L1078.78,825.81 Z M140.43,475.63 C143.684463,482.707449 147.612575,489.455228 152.16,495.78 C163.302184,510.810141 182.496316,517.506875 200.57,512.67 C203.38,512.03 335.37,473.73 383.63,459.73 C384.172756,459.568962 384.621833,459.18544 384.865828,458.674575 C385.109824,458.16371 385.125875,457.573369 384.91,457.05 C366.372515,411.463623 366.046763,360.499618 384,314.68 C384.215256,314.153934 384.196505,313.561126 383.948433,313.049715 C383.70036,312.538305 383.246403,312.156605 382.7,312 C336.47,299.89 204.19,265.24 201.33,264.6 C183.594078,259.873224 164.737316,266.024297 153.2,280.3 C152.797444,280.795531 152.752661,281.49157 153.088395,282.034602 C153.424129,282.577635 154.0668,282.84865 154.69,282.71 C160.85,281.27 172.64,278.71 178.98,278.71 C203.23,278.71 223.81,292.95 236.98,318.71 C246.75,337.84 252.12,362.71 252.1,388.89 C252.08,415.07 246.68,439.89 236.9,458.99 C228.4,475.6 216.83,487.41 203.2,493.71 C196.32,496.89 191.2,486.66 197.92,483.12 L198.56,482.8 C209.7,477.51 219.26,467.6 226.42,453.62 C235.36,436.15 240.3,413.16 240.32,388.88 C240.34,364.6 235.43,341.56 226.49,324.07 C215.42,302.41 198.57,290.48 179.03,290.46 L179.03,290.46 C169.64,290.46 155.78,293.17 141.46,299.98 L141.28,300.37 C134.451645,303.662568 128.000581,307.686101 122.04,312.37 C105.74,325.18 86.3,348.86 86.27,388.9 C86.27,428.45 106.91,452.37 124.27,465.47 C129.374716,469.311991 134.793857,472.717352 140.47,475.65 L140.43,475.63 Z M103.56,350.84 C103.56,350.84 106.42,340.84 113.69,340.84 C121.23,340.84 127.34,345.28 127.350012,350.79 C127.36,356.3 121.26,360.79 113.73,360.79 C106.2,360.79 101.75,357.63 103.56,350.84 Z M113.14,438.08 C112.723267,437.437469 112.710041,436.613381 113.10594,435.957808 C113.501838,435.302234 114.237337,434.930299 115,435 C116.480943,435.251688 117.978221,435.3954 119.48,435.43 C143.13,435.43 162.26,413.14 162.22,385.73 C162.18,358.32 142.97,336.14 119.32,336.18 L118.61,336.18 C117.852442,336.175295 117.162567,335.742966 116.828012,335.063268 C116.493457,334.383571 116.571654,333.573187 117.03,332.97 C120.654163,328.708815 124.694143,324.81958 129.09,321.36 C145.92,308.14 166.26,302.27 179.01,302.24 C211.56,302.24 228.56,345.84 228.53004,388.87 C228.5,431.9 211.46,475.37 178.96,475.43 L178.87,475.43 C170.23,475.43 149.62,470.21 131.14,456.26 C124.282846,451.113301 118.218215,444.988025 113.14,438.08 Z M203.69,806.58 C199.93098,802.785562 195.47658,799.750323 190.57,797.64 C185.442696,795.432309 179.912217,794.315316 174.33,794.36 C169.380001,794.327902 164.464749,795.188325 159.82,796.9 C155.380926,798.532584 151.331307,801.073388 147.93,804.36 L147.93,760.25 L135.79,763 L135.79,877.8 L147.79,877.8 L147.79,869.6 C151.481595,872.642915 155.669395,875.027729 160.17,876.65 C181.042165,884.423351 204.297637,874.071288 212.49,853.36 C214.634971,848.044639 215.721956,842.361748 215.69,836.63 C215.726758,830.92698 214.639379,825.272609 212.49,819.99 C210.46304,814.986905 207.473112,810.430661 203.69,806.58 L203.69,806.58 Z M194.91,859.39 C189.280527,865.361328 181.384637,868.667937 173.18,868.49 C168.266156,868.527921 163.402035,867.504613 158.92,865.49 C154.649847,863.639224 150.879884,860.801471 147.92,857.21 L147.92,816.5 C150.82095,812.847779 154.560015,809.949146 158.82,808.05 C163.329855,806.023272 168.225924,804.999703 173.17,805.05 C177.2985,805.016859 181.387545,805.855113 185.17,807.51 C188.802925,809.094013 192.088669,811.377384 194.84,814.23 C197.618422,817.153457 199.817265,820.577272 201.32,824.32 C202.923134,828.3084 203.731611,832.571585 203.7,836.87 C203.693333,845.81 200.763333,853.316667 194.91,859.39 L194.91,859.39 Z M732.87,298 C773.12,271.33 891.13,193.13 893.47,191.36 C908.852385,180.709677 916.157773,161.736291 911.89,143.52 C910.005772,135.953544 907.397058,128.586186 904.1,121.52 L904.1,121.52 C905.540335,115.295227 906.446956,108.958915 906.81,102.58 C908,80.93 903.16,49.69 873,24.14 C842.41,-1.73 811.77,-2.21 791.46,1.94 C784.043221,3.46576037 776.814145,5.79274501 769.9,8.88 L769.48,8.78 C755,15.29 744,24.12 737.93,31.28 L737.93,31.28 C725.3,46.2 723.51,66.78 732.87,89.22 C740.44,107.35 754.82,125.98 773.37,141.68 C791.92,157.38 812.63,168.46 831.75,172.94 C847.03,176.51 860.75,175.63 872.01,170.55 C872.22,170.46 872.44,170.36 872.68,170.27 C879.68,167.45 884.21,177.96 877.34,181.14 C863.73,187.47 847.23,188.66 829.06,184.41 C808.17,179.52 785.69,167.54 765.76,150.67 C745.83,133.8 730.25,113.6 722,93.78 C710.85,67.05 713.31,42.16 729,23.64 C733.11,18.81 742.68,11.47 747.76,7.71 C748.27108,7.32714749 748.483741,6.6626979 748.289937,6.0542423 C748.096133,5.4457867 747.538356,5.02673603 746.9,5.01 C728.548234,4.58302065 711.662769,14.9924593 703.8,31.58 C702.42,34.23 641.41,161.52 621.71,202.58 C669.91832,218.445004 709.884244,252.751845 732.87,298 Z M818.58,14 C823.28,8.45 832.75,12.73 832.75,12.73 C839.1,15.73 838.65,21.18 833.75,26.92 C828.85,32.66 821.51,34.41 817.32,30.85 C813.13,27.29 813.72,19.78 818.58,14 Z M879.1,150.8 L879.04,150.87 C858,175.62 813.78,160.48 781,132.71 C748.22,104.94 725.91,63.71 746.94,38.91 C755.2,29.21 772.83,17.49 793.8,13.2 C799.279643,12.0821012 804.857491,11.5159413 810.45,11.51 C811.208494,11.5460204 811.881166,12.0084751 812.186416,12.7037684 C812.491667,13.3990618 812.376838,14.2072483 811.89,14.79 C811.71,14.97 811.55,15.15 811.41,15.32 C796.09,33.32 800.6,62.32 821.48,80.09 C842.36,97.86 871.7,97.64 887.02,79.62 C887.968645,78.4554103 888.824597,77.2182922 889.58,75.92 C890.015288,75.2819989 890.779027,74.9516526 891.542044,75.0713415 C892.305062,75.1910305 892.93097,75.7393609 893.15,76.48 C895.124709,84.8336943 895.862573,93.4320012 895.34,102 C894,125.11 884.68,144.2 879.1,150.8 Z M925.44,795.67 L937.58,795.67 L937.58,877.84 L925.44,877.84 L925.44,868.32 C922.396627,871.94336 918.55193,874.808909 914.21,876.69 C909.61184,878.603558 904.669903,879.553145 899.69,879.48 C890.29,879.48 882.623333,876.526667 876.69,870.62 C870.756667,864.713333 867.806667,857.046667 867.839721,847.62 L867.839721,795.62 L879.84,795.62 L879.84,845.2 C879.84,852.42 881.916667,858.16 886.07,862.42 C890.223333,866.68 895.8,868.813333 902.8,868.82 C912.12414,869.012008 920.8082,864.09462 925.44,856 L925.44,795.67 Z M519.05,795.67 L532.05,795.67 L496.62,877.84 L485.1,877.84 L449.52,795.67 L463,795.67 L491,862.09 L519.05,795.67 Z M101.11,778.37 C89.9700048,767.318521 74.8916721,761.151911 59.2,761.22919 C51.2370781,761.188395 43.3471821,762.74937 36,765.82 C21.7458691,771.660783 10.4307829,782.975869 4.59,797.23 C-1.52480163,812.095753 -1.52480163,828.774247 4.59,843.64 C10.4307829,857.894131 21.7458691,869.209217 36,875.05 C43.3457397,878.125364 51.2366092,879.686532 59.2,879.64101 C83.1036129,879.45448 104.575406,864.981728 113.716233,842.894121 C122.857061,820.806514 117.891963,795.393009 101.11,778.37 L101.11,778.37 Z M101.84,839.13 C99.5699731,844.729476 96.2618942,849.849364 92.09,854.22 C87.9194634,858.529782 82.9279592,861.960591 77.41,864.31 C71.6593757,866.78249 65.4595032,868.038807 59.2,868 C52.8908684,868.05086 46.6395792,866.794474 40.84,864.31 C35.3207305,861.962977 30.3287788,858.53186 26.16,854.22 C17.5014161,845.113459 12.7091594,833.005573 12.79,820.44 C12.7432261,814.003201 13.9701036,807.620719 16.4,801.66 C18.6493053,796.047424 21.9635765,790.923207 26.16,786.57 C34.8662271,777.746876 46.7647943,772.810773 59.16,772.879282 C71.5171057,772.840409 83.3704953,777.774215 92.05,786.57 C96.2432375,790.923761 99.5541284,796.048001 101.8,801.66 C104.229896,807.620719 105.456774,814.003201 105.41,820.44 C105.475356,826.845473 104.261651,833.199574 101.84,839.13 L101.84,839.13 Z M370.84,806.66 C367.403726,802.844759 363.216181,799.780702 358.54,797.66 C353.730929,795.460027 348.49824,794.340443 343.21,794.38 C332.358602,794.357193 321.977207,798.806362 314.51,806.68 C310.841634,810.599076 307.923335,815.157859 305.9,820.13 C299.275095,836.15889 302.812366,854.592003 314.9,867.03 C318.736374,870.899246 323.309927,873.959616 328.35,876.03 C333.618919,878.233636 339.278961,879.349318 344.99,879.31 C350.532596,879.365611 356.046471,878.507446 361.31,876.77 C366.458962,874.983683 371.299803,872.409773 375.66,869.14 L368.12,861.14 C365.15787,863.654722 361.714536,865.539709 358,866.68 C353.975468,868.002801 349.766349,868.677881 345.53,868.68 C337.811798,868.833264 330.339674,865.962131 324.71,860.68 C318.97413,855.437728 315.40699,848.239239 314.71,840.5 L382.12,840.5 L382.12,836.73 C382.173419,831.070192 381.155518,825.451377 379.12,820.17 C377.21617,815.203827 374.423962,810.625826 370.88,806.66 L370.84,806.66 Z M315,830.77 C315.861953,823.67521 319.20164,817.112706 324.43,812.24 C329.406987,807.497777 336.046231,804.898094 342.92,805 C349.617192,804.966689 356.039651,807.659862 360.71,812.46 C365.767829,817.352186 369.038894,823.799248 370,830.77 L315,830.77 Z M188.21,134.48 C181.644661,150.47368 187.714566,168.865917 202.51,177.81 L337.51,260.02 C337.940542,260.279321 338.457705,260.353365 338.943714,260.225269 C339.429724,260.097174 339.843207,259.777844 340.09,259.34 C355.137883,232.663685 374.842363,208.898416 398.27,189.17 C399.041286,188.532128 399.161244,187.394741 398.54,186.61 L304.4,65.87 C301.043017,61.6566914 295.289658,60.1968839 290.33,62.3 C289.152665,62.8060998 287.817578,62.7981318 286.646367,62.2780156 C285.475157,61.7578994 284.574004,60.7727884 284.16,59.56 C283.42731,57.1748957 284.669078,54.6301459 287,53.74 C295.736144,50.1437715 305.797789,52.7713867 311.66,60.18 L405.76,180.82 C406.05688,181.20799 406.496573,181.461164 406.981167,181.523147 C407.465762,181.58513 407.955022,181.450775 408.34,181.15 C409.73,180.15 411.12,179.07 412.53,178.05 C412.935798,177.756542 413.20529,177.311107 413.276904,176.815465 C413.348518,176.319823 413.216134,175.816322 412.91,175.42 L321.71,56.42 C312.164336,43.9946683 295.678102,39.170514 280.94,44.49 C260.18,27.44 226.74,29.98 203.11,51.49 C190.82,62.68 182.95,77.32 180.96,92.69 C179.15,106.69 182.4,119.8 190.12,130.12 C189.42,131.6 188.78,133.08 188.21,134.48 Z M190.05,93.83 C191.76,80.61 198.59,67.98 209.27,58.25 C228.04,41.17 253.76,37.79 271.18,48.74 C254.860302,56.7317235 239.78659,67.0492163 226.43,79.37 C213.613934,91.1678126 202.906703,105.067598 194.77,120.47 C190.356905,112.33418 188.700758,102.986774 190.05,93.83 L190.05,93.83 Z M438.2,794.11 C439.432223,794.284332 440.64238,794.589386 441.81,795.02 L441.81,806.17 C440.409899,805.738331 438.987905,805.381163 437.55,805.1 C436.142655,804.829856 434.713035,804.692585 433.28,804.69 C428.495747,804.600075 423.819624,806.117703 420,809 C415.916385,812.254409 412.843344,816.603837 411.14,821.54 L411.14,877.8 L399,877.8 L399,795.67 L411.13,795.67 L411.13,807.32 C413.371984,803.228287 416.6564,799.80242 420.65,797.39 C424.721276,795.003576 429.371611,793.785631 434.09,793.87 C435.463779,793.859831 436.836741,793.940004 438.2,794.11 Z M500.7,529.49 C540.053798,545.729694 584.236202,545.729694 623.59,529.49 C681.640979,504.420953 719.046087,447.037307 718.552692,383.80654 C718.059297,320.575774 679.763259,263.78283 621.328141,239.622734 C562.893023,215.462638 495.672033,228.629393 450.67,273.05 C436.421871,287.384617 425.119137,304.370992 417.4,323.05 C401.160289,362.476541 401.160289,406.723459 417.4,446.15 C432.872626,483.966051 462.885807,513.982835 500.7,529.46 L500.7,529.49 Z M439.15,384.63 C439.026846,367.558286 442.279169,350.630575 448.72,334.82 C454.687743,319.94316 463.475696,306.360545 474.6,294.82 C497.70341,271.469779 529.186859,258.330813 562.035,258.330813 C594.883141,258.330813 626.36659,271.469779 649.47,294.82 C660.587589,306.365871 669.374646,319.947103 675.35,334.82 C681.786023,350.632001 685.03816,367.558743 684.92,384.63 C685.142688,417.961627 672.435836,450.081826 649.47,474.24 C638.415027,485.675505 625.17681,494.775292 610.54,501 C579.523662,514.051107 544.556338,514.051107 513.54,501 C498.901285,494.783282 485.662187,485.68629 474.61,474.25 C451.644164,450.091826 438.937312,417.971627 439.16,384.64 L439.15,384.63 Z M562,144.629743 C583.348324,144.598752 604.605549,147.413543 625.21,153 C625.785529,153.156829 626.261014,153.562371 626.506686,154.105946 C626.752359,154.649521 626.742573,155.274384 626.48,155.81 L606.14,198.2 L606.14,198.2 C520.749403,178.082813 432.594646,218.472492 392.07,296.28 C391.63638,297.098973 390.696962,297.512813 389.8,297.28 L345.85,285.77 C345.272721,285.621306 344.791862,285.22285 344.538501,284.683249 C344.285139,284.143648 344.285689,283.519154 344.54,282.98 C382.8,201.28 465.8,144.629743 562,144.629743 Z M646.61,795.63 L671.38,795.63 L671.38,806 L646.64,806 L646.64,856.35 C646.64,860.73 647.64,863.873333 649.64,865.78 C651.64,867.686667 654.866667,868.643333 659.32,868.65 C661.380544,868.671359 663.438834,868.507365 665.47,868.16 C667.453932,867.783328 669.401289,867.234588 671.29,866.52 L671.29,877.18 C669.025417,877.986988 666.677369,878.537102 664.29,878.82 C661.816298,879.141951 659.324561,879.305617 656.83,879.31 C649.723333,879.31 644.256667,877.616667 640.43,874.23 C636.603333,870.843333 634.69,865.923333 634.69,859.47 L634.69,806 L617,806 L617,795.67 L634.71,795.67 L634.71,774.84 L646.71,771.73 L646.61,795.63 Z M435.1,161 C435.31742,161.466122 435.720012,161.819966 436.210186,161.975757 C436.700359,162.131549 437.233365,162.075066 437.68,161.82 C460.929915,148.800365 486.079286,139.510654 512.21,134.29 L521.21,132.66 C548.187976,128.203257 575.708357,128.128969 602.71,132.44 C603.218063,132.522561 603.737624,132.390891 604.145045,132.076324 C604.552467,131.761757 604.811317,131.29242 604.86,130.78 L607.49,102.24 C608.880241,87.1349082 600.535616,72.8109058 586.71,66.57 C582.095354,64.5041418 577.323625,62.8087905 572.44,61.5 C569.176053,57.0174417 565.452487,52.8883393 561.33,49.18 C549.64,38.73 529.44,27.37 499.61,32.62 L499.41,32.62 C470.12,37.93 455.09,56.43 447.63,71 C445.526304,75.1477213 443.760579,79.4583642 442.35,83.89 C437.414387,87.28731 432.825549,91.1627006 428.65,95.46 C418.729275,105.901301 416.268101,121.37608 422.46,134.38 L435.1,161 Z M455.83,75.18 C462.33,62.42 475.46,46.28 501.07,41.71 L501.25,41.71 C527.44,37.1 545.06,46.98 555.25,56.08 C556.15,56.89 557.02,57.73 557.87,58.58 C543.71,56.58 525.87,56.51 504.05,60.41 C483.47,64.09 467.59,69.82 455.4,76.11 C455.54,75.81 455.67,75.52 455.83,75.22 L455.83,75.18 Z M431.15,109.62 C434.71,100.21 449.15,83.12 505.93,72.99 C565.6,62.33 586.29,74.51 593.02,81.58 C593.868214,82.4503484 594.23923,83.679357 594.014301,84.8736684 C593.789373,86.0679798 592.996705,87.0778279 591.89,87.58 L591.29,87.85 C589.310261,88.780846 586.970539,88.4805817 585.29,87.08 C579.71,82.33 561.92,73.08 512.07,81.31 L503,82.92 C454.1,92.35 442.67,106.38 440,112.31 C439.18765,114.071929 437.516997,115.284194 435.59,115.51 C434.09956,115.65682 432.639752,115.019401 431.734323,113.826437 C430.828894,112.633473 430.607662,111.056007 431.15,109.66 L431.15,109.62 Z M285.93,839.21 C290.03,842.99 292.080042,847.99 292.080042,854.21 C292.086998,857.678401 291.213012,861.091763 289.54,864.13 C287.798919,867.277048 285.393137,870.007014 282.49,872.13 C279.286204,874.466708 275.708609,876.24198 271.91,877.38 C267.655819,878.661641 263.232906,879.295412 258.79,879.26 C252.275274,879.337883 245.800452,878.233335 239.68,876 C233.949302,873.900653 228.686461,870.696742 224.19,866.57 L231.57,858.7 C235.21261,862.15794 239.464363,864.911069 244.11,866.82 C248.604865,868.701736 253.42716,869.67707 258.3,869.69 C264.86,869.69 270.216667,868.323333 274.37,865.59 C278.523333,862.856667 280.6,859.303333 280.6,854.93 C280.739287,851.740679 279.372942,848.671031 276.91,846.64 C274.45,844.64 270.596667,843.246667 265.35,842.46 L251.08,840.46 C242.88,839.26 236.786667,836.83 232.8,833.17 C228.813333,829.51 226.813333,824.56 226.8,818.32 C226.8,811.44 229.696667,805.73 235.49,801.19 C241.283333,796.65 248.663333,794.379297 257.63,794.379297 C263.340513,794.350732 269.018937,795.235243 274.45,797 C280.01889,798.893913 285.250965,801.661849 289.95,805.2 L283.55,813.4 C279.397251,810.564793 274.909875,808.253929 270.19,806.52 C265.954197,805.003007 261.489252,804.225024 256.99,804.22 C251.41,804.22 246.843333,805.476667 243.29,807.99 C239.939744,810.135494 237.926757,813.851777 237.96,817.83 C237.789899,820.959271 239.132807,823.979884 241.57,825.95 C243.97,827.86 247.86,829.21 253.21,829.95 L267.48,831.95 C275.68,833.023333 281.83,835.443333 285.93,839.21 Z M599,801.41 C593.373333,796.47 585.373333,794 575,794 C569.908488,794.019034 564.840454,794.691187 559.92,796 C554.2662,797.54595 548.774236,799.632227 543.52,802.23 L548.11,811.58 C552.427433,809.307248 556.95961,807.46825 561.64,806.09 C565.614732,804.955707 569.726608,804.373584 573.86,804.36 C580.96,804.36 586.37,806.026667 590.09,809.36 C593.81,812.693333 595.67,817.64 595.67,824.2 L595.67,835 C592.037732,833.205549 588.213152,831.830042 584.27,830.9 C580.10573,829.912754 575.839683,829.419356 571.56,829.43 C561.5,829.43 553.52,831.696667 547.62,836.23 C542.099682,840.57557 538.843668,847.186845 538.764014,854.211911 C538.684361,861.236977 541.789633,867.920379 547.21,872.39 C552.843333,876.99 560.14,879.286667 569.1,879.28 C573.985098,879.324063 578.840685,878.518746 583.45,876.9 C587.925305,875.291103 592.067271,872.874392 595.67,869.77 L595.67,877.77 L607.48,877.77 L607.48,822.57 C607.46,813.383333 604.633333,806.33 599,801.41 Z M595.64,860.29 C592.534426,863.456332 588.782448,865.915583 584.64,867.5 C580.334702,869.081446 575.776158,869.860974 571.19,869.8 C565.07,869.8 560.07,868.35 556.19,865.45 C552.489016,862.918876 550.300541,858.703339 550.36,854.22 C550.246934,849.633969 552.43504,845.295288 556.19,842.66 C560.07,839.76 565.29,838.31 571.85,838.31 C576.189736,838.265388 580.516598,838.789856 584.72,839.87 C588.610362,840.915734 592.29806,842.605788 595.63,844.87 L595.64,860.29 Z" id="Shape" fill="#2B388F" fill-rule="nonzero"></path>
    </g>
</svg>