<?xml version="1.0" encoding="UTF-8"?>
<svg width="827px" height="686px" viewBox="0 0 827 686" color="#2B388F" version="1.1" xmlns="http://www.w3.org/2000/svg" xmlns:xlink="http://www.w3.org/1999/xlink">
    <title>ObservatoriumFinal_Blue_IconOnly</title>
    <g id="ObservatoriumFinal_Blue_IconOnly" stroke="none" stroke-width="1" fill="none" fill-rule="evenodd">
        <path d="M716.17,573.87 L716.17,494.49 L716.09,384.58 C716.13866,368.780239 714.607715,353.015187 711.52,337.52 L711.52,337.46 C711.52,337.3 711.45,337.14 711.42,336.98 C709.873333,329.293333 707.946667,321.68 705.64,314.14 C705.597891,314.00731 705.540859,313.879828 705.47,313.76 C702.736248,304.9817 699.500928,296.367535 695.78,287.96 L692.87,287.1 C679.69,295.77 660.17,308.46 654.87,311.87 C654.103473,312.392727 653.797088,313.373988 654.13,314.24 C662.878866,336.384638 667.410057,359.969892 667.49,383.78 C667.95,488.78 582.73,575.2 477.71,576.12 C406.55332,576.781269 340.901357,537.920052 307.25,475.22 C306.814455,474.392148 305.863262,473.976779 304.96,474.22 L237.73,493.72 C236.877064,493.973584 236.294246,494.760185 236.299958,495.65 C236.44,537.28 236.58,573.84 236.58,573.84 C236.58,641.91 333.3,679.4 439.86,686.33 C440.414244,686.364911 440.959689,686.175479 441.365615,685.796108 C441.771542,685.416738 442.001363,684.885605 442,684.33 L442,621.7 C441.999167,621.149946 442.224913,620.623831 442.624127,620.245429 C443.023341,619.867027 443.560778,619.669746 444.11,619.7 C465.589072,620.930013 487.120928,620.930013 508.6,619.7 C509.149222,619.669746 509.686659,619.867027 510.085873,620.245429 C510.485087,620.623831 510.710833,621.149946 510.71,621.7 L510.71,684.36 C510.708637,684.915605 510.938458,685.446738 511.344385,685.826108 C511.750311,686.205479 512.295756,686.398894 512.85,686.36 C619.45,679.43 716.17,641.94 716.17,573.87 Z M302.330049,629.48 C302.334866,630.176744 301.97677,630.825802 301.384774,631.193248 C300.792779,631.560694 300.052219,631.593559 299.43,631.28 C277.81,620.41 252.65,600.8 252.65,579.45 L252.65,554.71 C252.657518,553.873099 253.18534,553.129382 253.972858,552.846054 C254.760376,552.562726 255.641029,552.799711 256.18,553.44 C267.13,566.8 281.76,578.17 301.18,587.54 C301.874568,587.870805 302.317822,588.570681 302.32,589.34 L302.330049,629.48 Z M394.07,659.06 C375.581641,656.247873 357.310988,652.154685 339.39,646.81 C338.548552,646.550221 337.976037,645.770627 337.97998,644.89 L337.97998,604.46 C337.982222,603.829893 338.281258,603.237679 338.786995,602.86182 C339.292731,602.485961 339.946023,602.370415 340.55,602.55 C358.300619,607.784907 376.389861,611.794343 394.69,614.55 C395.676076,614.699539 396.401274,615.552713 396.39013,616.55 L396.39013,657.11 C396.382953,657.692101 396.122632,658.242244 395.676995,658.616809 C395.231358,658.991375 394.644637,659.153186 394.07,659.06 L394.07,659.06 Z M651.6,587.54 C671.03,578.17 685.66,566.8 696.6,553.44 C697.138971,552.799711 698.019624,552.562726 698.807142,552.846054 C699.59466,553.129382 700.122482,553.873099 700.13,554.71 L700.13,579.45 C700.13,600.8 674.97,620.45 653.35,631.28 C652.727781,631.593559 651.987221,631.560694 651.395226,631.193248 C650.80323,630.825802 650.445134,630.176744 650.449951,629.48 L650.449951,589.34 C650.454012,588.568397 650.901536,587.867925 651.6,587.54 L651.6,587.54 Z M558.1,614.54 C576.400139,611.784343 594.489381,607.774907 612.24,602.54 C612.843977,602.360415 613.497269,602.475961 614.003005,602.85182 C614.508742,603.227679 614.807778,603.819893 614.81002,604.45 L614.81002,644.88 C614.813963,645.760627 614.241448,646.540221 613.4,646.8 C595.479012,652.144685 577.208359,656.237873 558.72,659.05 C558.136736,659.144591 557.541496,658.976425 557.093954,658.590613 C556.646413,658.204801 556.39238,657.640835 556.399833,657.05 L556.399833,616.51 C556.403635,615.524077 557.125224,614.687883 558.1,614.54 Z M476.4,447.9 C511.37067,447.9 539.72,419.55067 539.72,384.58 C539.72,349.60933 511.37067,321.26 476.4,321.26 C441.42933,321.26 413.08,349.60933 413.08,384.58 C413.08,419.55067 441.42933,447.9 476.4,447.9 L476.4,447.9 Z M475.85,327.63 C487.49,327.63 496.93,334.53 496.93,343.03 C496.93,351.53 487.49,358.43 475.85,358.43 C464.21,358.43 454.78,351.54 454.78,343.03 C454.78,334.52 464.21,327.63 475.85,327.63 Z M54.43,475.63 C57.6844635,482.707449 61.6125748,489.455228 66.16,495.78 C77.3021843,510.810141 96.4963159,517.506875 114.57,512.67 C117.38,512.03 249.37,473.73 297.63,459.73 C298.172756,459.568962 298.621833,459.18544 298.865828,458.674575 C299.109824,458.16371 299.125875,457.573369 298.91,457.05 C280.372515,411.463623 280.046763,360.499618 298,314.68 C298.215256,314.153934 298.196505,313.561126 297.948433,313.049715 C297.70036,312.538305 297.246403,312.156605 296.7,312 C250.47,299.89 118.19,265.24 115.33,264.6 C97.5940779,259.873224 78.7373157,266.024297 67.2,280.3 C66.7974443,280.795531 66.7526608,281.49157 67.0883948,282.034602 C67.4241288,282.577635 68.0668001,282.84865 68.69,282.71 C74.85,281.27 86.64,278.71 92.98,278.71 C117.23,278.71 137.81,292.95 150.98,318.71 C160.75,337.84 166.12,362.71 166.1,388.89 C166.08,415.07 160.68,439.89 150.9,458.99 C142.4,475.6 130.83,487.41 117.2,493.71 C110.32,496.89 105.2,486.66 111.92,483.12 L112.56,482.8 C123.7,477.51 133.26,467.6 140.42,453.62 C149.36,436.15 154.3,413.16 154.32,388.88 C154.34,364.6 149.43,341.56 140.49,324.07 C129.42,302.41 112.57,290.48 93.03,290.46 L93.03,290.46 C83.64,290.46 69.78,293.17 55.46,299.98 L55.28,300.37 C48.4516447,303.662568 42.0005814,307.686101 36.04,312.37 C19.74,325.18 0.3,348.86 0.27,388.9 C0.27,428.45 20.91,452.37 38.27,465.47 C43.374716,469.311991 48.7938573,472.717352 54.47,475.65 L54.43,475.63 Z M17.56,350.84 C17.56,350.84 20.42,340.84 27.69,340.84 C35.23,340.84 41.34,345.28 41.3500123,350.79 C41.36,356.3 35.26,360.79 27.73,360.79 C20.2,360.79 15.75,357.63 17.56,350.84 Z M27.14,438.08 C26.7232674,437.437469 26.7100411,436.613381 27.1059395,435.957808 C27.501838,435.302234 28.2373374,434.930299 29,435 C30.4809426,435.251688 31.9782208,435.3954 33.48,435.43 C57.13,435.43 76.26,413.14 76.22,385.73 C76.18,358.32 56.97,336.14 33.32,336.18 L32.61,336.18 C31.8524424,336.175295 31.1625672,335.742966 30.8280121,335.063268 C30.493457,334.383571 30.5716542,333.573187 31.03,332.97 C34.654163,328.708815 38.6941434,324.81958 43.09,321.36 C59.92,308.14 80.26,302.27 93.01,302.24 C125.56,302.24 142.56,345.84 142.53004,388.87 C142.5,431.9 125.46,475.37 92.96,475.43 L92.87,475.43 C84.23,475.43 63.62,470.21 45.14,456.26 C38.2828457,451.113301 32.2182151,444.988025 27.14,438.08 Z M646.87,298 C687.12,271.33 805.13,193.13 807.47,191.36 C822.852385,180.709677 830.157773,161.736291 825.89,143.52 C824.005772,135.953544 821.397058,128.586186 818.1,121.52 L818.1,121.52 C819.540335,115.295227 820.446956,108.958915 820.81,102.58 C822,80.93 817.16,49.69 787,24.14 C756.41,-1.73 725.77,-2.21 705.46,1.94 C698.043221,3.46576037 690.814145,5.79274501 683.9,8.88 L683.48,8.78 C669,15.29 658,24.12 651.93,31.28 L651.93,31.28 C639.3,46.2 637.51,66.78 646.87,89.22 C654.44,107.35 668.82,125.98 687.37,141.68 C705.92,157.38 726.63,168.46 745.75,172.94 C761.03,176.51 774.75,175.63 786.01,170.55 C786.22,170.46 786.44,170.36 786.68,170.27 C793.68,167.45 798.21,177.96 791.34,181.14 C777.73,187.47 761.23,188.66 743.06,184.41 C722.17,179.52 699.69,167.54 679.76,150.67 C659.83,133.8 644.25,113.6 636,93.78 C624.85,67.05 627.31,42.16 643,23.64 C647.11,18.81 656.68,11.47 661.76,7.71 C662.27108,7.32714749 662.483741,6.6626979 662.289937,6.0542423 C662.096133,5.4457867 661.538356,5.02673603 660.9,5.01 C642.548234,4.58302065 625.662769,14.9924593 617.8,31.58 C616.42,34.23 555.41,161.52 535.71,202.58 C583.91832,218.445004 623.884244,252.751845 646.87,298 Z M732.58,14 C737.28,8.45 746.75,12.73 746.75,12.73 C753.1,15.73 752.65,21.18 747.75,26.92 C742.85,32.66 735.51,34.41 731.32,30.85 C727.13,27.29 727.72,19.78 732.58,14 Z M793.1,150.8 L793.04,150.87 C772,175.62 727.78,160.48 695,132.71 C662.22,104.94 639.91,63.71 660.94,38.91 C669.2,29.21 686.83,17.49 707.8,13.2 C713.279643,12.0821012 718.857491,11.5159413 724.45,11.51 C725.208494,11.5460204 725.881166,12.0084751 726.186416,12.7037684 C726.491667,13.3990618 726.376838,14.2072483 725.89,14.79 C725.71,14.97 725.55,15.15 725.41,15.32 C710.09,33.32 714.6,62.32 735.48,80.09 C756.36,97.86 785.7,97.64 801.02,79.62 C801.968645,78.4554103 802.824597,77.2182922 803.58,75.92 C804.015288,75.2819989 804.779027,74.9516526 805.542044,75.0713415 C806.305062,75.1910305 806.93097,75.7393609 807.15,76.48 C809.124709,84.8336943 809.862573,93.4320012 809.34,102 C808,125.11 798.68,144.2 793.1,150.8 Z M102.21,134.48 C95.6446611,150.47368 101.714566,168.865917 116.51,177.81 L251.51,260.02 C251.940542,260.279321 252.457705,260.353365 252.943714,260.225269 C253.429724,260.097174 253.843207,259.777844 254.09,259.34 C269.137883,232.663685 288.842363,208.898416 312.27,189.17 C313.041286,188.532128 313.161244,187.394741 312.54,186.61 L218.4,65.87 C215.043017,61.6566914 209.289658,60.1968839 204.33,62.3 C203.152665,62.8060998 201.817578,62.7981318 200.646367,62.2780156 C199.475157,61.7578994 198.574004,60.7727884 198.16,59.56 C197.42731,57.1748957 198.669078,54.6301459 201,53.74 C209.736144,50.1437715 219.797789,52.7713867 225.66,60.18 L319.76,180.82 C320.05688,181.20799 320.496573,181.461164 320.981167,181.523147 C321.465762,181.58513 321.955022,181.450775 322.34,181.15 C323.73,180.15 325.12,179.07 326.53,178.05 C326.935798,177.756542 327.20529,177.311107 327.276904,176.815465 C327.348518,176.319823 327.216134,175.816322 326.91,175.42 L235.71,56.42 C226.164336,43.9946683 209.678102,39.170514 194.94,44.49 C174.18,27.44 140.74,29.98 117.11,51.49 C104.82,62.68 96.95,77.32 94.96,92.69 C93.15,106.69 96.4,119.8 104.12,130.12 C103.42,131.6 102.78,133.08 102.21,134.48 Z M104.05,93.83 C105.76,80.61 112.59,67.98 123.27,58.25 C142.04,41.17 167.76,37.79 185.18,48.74 C168.860302,56.7317235 153.78659,67.0492163 140.43,79.37 C127.613934,91.1678126 116.906703,105.067598 108.77,120.47 C104.356905,112.33418 102.700758,102.986774 104.05,93.83 L104.05,93.83 Z M414.7,529.49 C454.053798,545.729694 498.236202,545.729694 537.59,529.49 C595.640979,504.420953 633.046087,447.037307 632.552692,383.80654 C632.059297,320.575774 593.763259,263.78283 535.328141,239.622734 C476.893023,215.462638 409.672033,228.629393 364.67,273.05 C350.421871,287.384617 339.119137,304.370992 331.4,323.05 C315.160289,362.476541 315.160289,406.723459 331.4,446.15 C346.872626,483.966051 376.885807,513.982835 414.7,529.46 L414.7,529.49 Z M353.15,384.63 C353.026846,367.558286 356.279169,350.630575 362.72,334.82 C368.687743,319.94316 377.475696,306.360545 388.6,294.82 C411.70341,271.469779 443.186859,258.330813 476.035,258.330813 C508.883141,258.330813 540.36659,271.469779 563.47,294.82 C574.587589,306.365871 583.374646,319.947103 589.35,334.82 C595.786023,350.632001 599.03816,367.558743 598.92,384.63 C599.142688,417.961627 586.435836,450.081826 563.47,474.24 C552.415027,485.675505 539.17681,494.775292 524.54,501 C493.523662,514.051107 458.556338,514.051107 427.54,501 C412.901285,494.783282 399.662187,485.68629 388.61,474.25 C365.644164,450.091826 352.937312,417.971627 353.16,384.64 L353.15,384.63 Z M476,144.629743 C497.348324,144.598752 518.605549,147.413543 539.21,153 C539.785529,153.156829 540.261014,153.562371 540.506686,154.105946 C540.752359,154.649521 540.742573,155.274384 540.48,155.81 L520.14,198.2 L520.14,198.2 C434.749403,178.082813 346.594646,218.472492 306.07,296.28 C305.63638,297.098973 304.696962,297.512813 303.8,297.28 L259.85,285.77 C259.272721,285.621306 258.791862,285.22285 258.538501,284.683249 C258.285139,284.143648 258.285689,283.519154 258.54,282.98 C296.8,201.28 379.8,144.629743 476,144.629743 Z M349.1,161 C349.31742,161.466122 349.720012,161.819966 350.210186,161.975757 C350.700359,162.131549 351.233365,162.075066 351.68,161.82 C374.929915,148.800365 400.079286,139.510654 426.21,134.29 L435.21,132.66 C462.187976,128.203257 489.708357,128.128969 516.71,132.44 C517.218063,132.522561 517.737624,132.390891 518.145045,132.076324 C518.552467,131.761757 518.811317,131.29242 518.86,130.78 L521.49,102.24 C522.880241,87.1349082 514.535616,72.8109058 500.71,66.57 C496.095354,64.5041418 491.323625,62.8087905 486.44,61.5 C483.176053,57.0174417 479.452487,52.8883393 475.33,49.18 C463.64,38.73 443.44,27.37 413.61,32.62 L413.41,32.62 C384.12,37.93 369.09,56.43 361.63,71 C359.526304,75.1477213 357.760579,79.4583642 356.35,83.89 C351.414387,87.28731 346.825549,91.1627006 342.65,95.46 C332.729275,105.901301 330.268101,121.37608 336.46,134.38 L349.1,161 Z M369.83,75.18 C376.33,62.42 389.46,46.28 415.07,41.71 L415.25,41.71 C441.44,37.1 459.06,46.98 469.25,56.08 C470.15,56.89 471.02,57.73 471.87,58.58 C457.71,56.58 439.87,56.51 418.05,60.41 C397.47,64.09 381.59,69.82 369.4,76.11 C369.54,75.81 369.67,75.52 369.83,75.22 L369.83,75.18 Z M345.15,109.62 C348.71,100.21 363.15,83.12 419.93,72.99 C479.6,62.33 500.29,74.51 507.02,81.58 C507.868214,82.4503484 508.23923,83.679357 508.014301,84.8736684 C507.789373,86.0679798 506.996705,87.0778279 505.89,87.58 L505.29,87.85 C503.310261,88.780846 500.970539,88.4805817 499.29,87.08 C493.71,82.33 475.92,73.08 426.07,81.31 L417,82.92 C368.1,92.35 356.67,106.38 354,112.31 C353.18765,114.071929 351.516997,115.284194 349.59,115.51 C348.09956,115.65682 346.639752,115.019401 345.734323,113.826437 C344.828894,112.633473 344.607662,111.056007 345.15,109.66 L345.15,109.62 Z" id="Shape" fill="currentColor" fill-rule="nonzero"></path>
    </g>
</svg>
